<svg width="25" height="25" viewBox="0 0 25 25" fill="none" xmlns="http://www.w3.org/2000/svg">
<path fill-rule="evenodd" clip-rule="evenodd" d="M20.8444 5.35128L20.738 5.229L21.2509 4.88044L21.3325 4.78412C21.5621 4.45401 21.5255 4.0236 21.251 3.74903C20.9385 3.43661 20.432 3.43661 20.1196 3.74903L19.588 4.076L19.4485 3.95463C18.8511 3.45551 18.2 3.01868 17.5051 2.65452L17.323 2.563L17.5326 2.02773L17.5691 1.92C17.6661 1.52591 17.4711 1.1325 17.1088 0.978729C16.7021 0.806093 16.2325 0.995843 16.0598 1.40255L15.839 1.95L15.6842 1.89865C14.9515 1.66972 14.1858 1.51546 13.3964 1.44525L13.193 1.431L13.2 0.800047L13.1915 0.686591C13.1268 0.285917 12.7935 0 12.4 0C11.9582 0 11.6 0.358172 11.6 0.8V1.43L11.4021 1.44465C10.6105 1.51584 9.84308 1.67091 9.10971 1.90094L8.929 1.96L8.75359 1.41212L8.70322 1.31014C8.49315 0.962876 8.07704 0.822623 7.71215 0.970046C7.3025 1.13556 7.10458 1.60182 7.27009 2.01148L7.458 2.571L7.28902 2.65695C6.59603 3.02124 5.94671 3.45735 5.35128 3.95564L5.216 4.072L4.78044 3.64907L4.68412 3.56755C4.35401 3.33787 3.9236 3.37447 3.64903 3.64903C3.33661 3.96145 3.33661 4.46798 3.64903 4.7804L4.084 5.202L3.95463 5.35149C3.45551 5.94888 3.01868 6.60002 2.65452 7.29486L2.565 7.471L2.02773 7.26738L1.92 7.23088C1.52591 7.13387 1.1325 7.32893 0.978729 7.69119C0.806093 8.09789 0.995843 8.56754 1.40255 8.74018L1.953 8.95L1.89869 9.11564C1.65088 9.90885 1.49055 10.7407 1.42957 11.6H0.800047L0.686591 11.6085C0.285917 11.6732 0 12.0065 0 12.4C0 12.8418 0.358172 13.2 0.8 13.2L1.43 13.199L1.44447 13.3959C1.51535 14.1857 1.66969 14.9513 1.89855 15.6829L1.954 15.85L1.4026 16.0598L1.30148 16.112C0.957929 16.3281 0.82496 16.7466 0.978729 17.1088C1.15136 17.5155 1.62101 17.7053 2.02772 17.5326L2.565 17.328L2.65381 17.505C3.01858 18.1999 3.45556 18.851 3.95503 19.448L4.078 19.589L3.64907 20.0196L3.56755 20.1159C3.33787 20.446 3.37447 20.8764 3.64903 21.151C3.96145 21.4634 4.46798 21.4634 4.7804 21.151L5.208 20.721L5.35149 20.8454C5.94888 21.3445 6.60002 21.7813 7.29486 22.1455L7.478 22.237L7.26738 22.7723L7.23088 22.88C7.13387 23.2741 7.32893 23.6675 7.69119 23.8213C8.09789 23.9939 8.56754 23.8042 8.74018 23.3975L8.957 22.848L9.11564 22.9013C9.84821 23.1302 10.6137 23.2845 11.4034 23.3553L11.6 23.369V24L11.6085 24.1134C11.6732 24.5141 12.0065 24.8 12.4 24.8C12.8418 24.8 13.2 24.4418 13.2 24L13.199 23.369L13.397 23.3554C14.1889 23.2843 14.9566 23.1292 15.6902 22.8991L15.865 22.84L16.0464 23.3879L16.0968 23.4899C16.3069 23.8371 16.723 23.9774 17.0878 23.83C17.4975 23.6644 17.6954 23.1982 17.5299 22.7885L17.337 22.23L17.511 22.143C18.204 21.7788 18.8533 21.3427 19.4487 20.8444L19.583 20.727L20.0196 21.1509L20.1159 21.2325C20.446 21.4621 20.8764 21.4255 21.151 21.151C21.4634 20.8385 21.4634 20.332 21.151 20.0196L20.715 19.598L20.8454 19.4485C21.3445 18.8511 21.7813 18.2 22.1455 17.5051L22.229 17.337L22.7723 17.5326L22.88 17.5691C23.2741 17.6661 23.6675 17.4711 23.8213 17.1088C23.9939 16.7021 23.8042 16.2325 23.3975 16.0598L22.844 15.854L22.8477 15.8512C23.1063 15.068 23.2792 14.2459 23.3553 13.3964L23.369 13.199L24 13.2L24.1134 13.1915C24.5141 13.1268 24.8 12.7935 24.8 12.4C24.8 11.9582 24.4418 11.6 24 11.6L23.369 11.599L23.3554 11.4021C23.2842 10.6105 23.1291 9.84308 22.8991 9.10971L22.848 8.956L23.3879 8.75359L23.4899 8.70322C23.8371 8.49315 23.9774 8.07704 23.83 7.71215C23.6644 7.3025 23.1982 7.10458 22.7885 7.27009L22.231 7.463L22.143 7.28902C21.7788 6.59603 21.3427 5.94671 20.8444 5.35128ZM12.1625 2.60282L12.4 2.6L12.8012 2.60806L13.1983 2.63205L13.7684 2.69478L14.034 2.7356L14.2999 2.78384C18.7997 3.66479 22.2 7.6353 22.2 12.4L22.1943 12.7373L22.1741 13.1187L22.1481 13.4147L22.106 13.763L22.0415 14.1649C21.9931 14.4311 21.9339 14.6935 21.8645 14.9516L21.7484 15.3493L21.6838 15.547L21.5783 15.8426C20.404 18.9718 17.6754 21.3408 14.3328 22.0095L14.034 22.0644L13.85 22.0935L13.4428 22.1452L13.3106 22.1583L12.9938 22.1823L12.6743 22.1962L12.4 22.2L11.8065 22.1823L11.5828 22.1664L11.1991 22.1272L10.743 22.0605L10.5463 22.0249L10.1452 21.9393C9.61439 21.8144 9.10027 21.6462 8.6067 21.4388L8.1967 21.2553L7.86873 21.0918L7.60097 20.9465L7.41419 20.8387L7.16179 20.6841L6.94727 20.5442L6.65053 20.3371C5.18696 19.2751 4.02857 17.8181 3.33182 16.1227L3.18298 15.7375L3.11622 15.547L3.03575 15.2986L2.95394 15.0193C2.9021 14.8319 2.85569 14.6423 2.81488 14.4506L2.72817 13.989L2.70598 13.8463L2.68666 13.709L2.63879 13.278C2.61311 12.9887 2.6 12.6959 2.6 12.4C2.6 11.4948 2.72273 10.6183 2.95245 9.78613L3.07276 9.38431L3.16045 9.12539L3.29782 8.76112C3.77905 7.55848 4.49172 6.47345 5.38076 5.56111L5.66399 5.28195L6.03195 4.95073C6.22586 4.78482 6.42631 4.62634 6.63288 4.47575L6.98906 4.22793L7.16179 4.11593L7.492 3.9157L7.74912 3.77177L8.02808 3.62683L8.37285 3.46303C8.60515 3.35819 8.84226 3.26214 9.08377 3.17531L9.45729 3.0495L9.65839 2.98865L9.90711 2.91989L10.2431 2.83813L10.5463 2.77507L10.8938 2.71503L11.1399 2.68026L11.4249 2.6479L11.6405 2.629L12.1625 2.60282ZM17.8677 12.9998L21.1799 12.9995C20.8717 17.58 17.0586 21.2 12.4 21.2C11.1376 21.2 9.93735 20.9342 8.85207 20.4555L8.52998 20.3056L10.1852 17.4359C10.8628 17.7343 11.6121 17.9 12.4 17.9C15.1561 17.9 17.4387 15.8728 17.8381 13.228L17.8677 12.9998ZM9.14716 7.96457L7.49071 5.09556L7.25082 5.26296C5.03916 6.86141 3.6 9.46264 3.6 12.4C3.6 15.4423 5.14379 18.124 7.49071 19.7044L9.14716 16.8354L8.95579 16.6883C7.70225 15.6802 6.9 14.1338 6.9 12.4C6.9 10.5795 7.78448 8.96561 9.14716 7.96457ZM12.4 8.1C14.7748 8.1 16.7 10.0252 16.7 12.4C16.7 14.7748 14.7748 16.7 12.4 16.7C10.0252 16.7 8.1 14.7748 8.1 12.4C8.1 10.0252 10.0252 8.1 12.4 8.1ZM21.1586 11.5413C20.727 7.08417 16.9704 3.6 12.4 3.6C11.0114 3.6 9.69792 3.92162 8.52998 4.49444L10.1852 7.36414L10.4426 7.25851C11.0507 7.02686 11.7105 6.9 12.4 6.9C15.2345 6.9 17.5682 9.04422 17.8676 11.7992L21.1798 11.7995L21.1586 11.5413Z" fill="#007AFF"/>
</svg>
